<?xml version="1.0" standalone="no"?>
<!DOCTYPE svg PUBLIC "-//W3C//DTD SVG 20010904//EN"
 "http://www.w3.org/TR/2001/REC-SVG-20010904/DTD/svg10.dtd">
<svg version="1.0" xmlns="http://www.w3.org/2000/svg"
 width="80.000000pt" height="80.000000pt" viewBox="0 0 80.000000 80.000000"
 preserveAspectRatio="xMidYMid meet">

<g transform="translate(0.000000,80.000000) scale(0.100000,-0.100000)"
fill="#000000" stroke="none">
<path d="M62 628 c-7 -7 -12 -42 -12 -89 0 -74 1 -77 25 -83 56 -14 56 -98 0
-112 -24 -6 -25 -9 -25 -83 0 -47 5 -82 12 -89 17 -17 659 -17 676 0 7 7 12
42 12 89 0 74 -1 77 -25 83 -56 14 -56 98 0 112 24 6 25 9 25 83 0 47 -5 82
-12 89 -17 17 -659 17 -676 0z m666 -80 c3 -66 2 -67 -27 -83 -54 -27 -54
-103 0 -130 29 -16 30 -17 27 -83 l-3 -67 -325 0 -325 0 -3 67 c-3 66 -2 67
27 83 54 27 54 103 1 130 -28 15 -30 19 -30 79 0 34 3 65 6 69 4 3 151 5 328
4 l321 -2 3 -67z"/>
<path d="M240 580 c0 -5 5 -10 10 -10 6 0 10 5 10 10 0 6 -4 10 -10 10 -5 0
-10 -4 -10 -10z"/>
<path d="M240 540 c0 -5 5 -10 10 -10 6 0 10 5 10 10 0 6 -4 10 -10 10 -5 0
-10 -4 -10 -10z"/>
<path d="M350 501 c-23 -45 -1 -91 45 -91 39 0 62 69 33 98 -19 19 -66 15 -78
-7z m58 -33 c-3 -36 -30 -46 -36 -15 -5 26 5 47 23 47 12 0 15 -8 13 -32z"/>
<path d="M469 433 c-34 -49 -74 -103 -87 -120 -19 -26 -21 -33 -9 -33 8 0 51
48 94 107 98 133 97 133 80 133 -8 0 -43 -39 -78 -87z"/>
<path d="M240 500 c0 -5 5 -10 10 -10 6 0 10 5 10 10 0 6 -4 10 -10 10 -5 0
-10 -4 -10 -10z"/>
<path d="M240 460 c0 -5 5 -10 10 -10 6 0 10 5 10 10 0 6 -4 10 -10 10 -5 0
-10 -4 -10 -10z"/>
<path d="M240 420 c0 -5 5 -10 10 -10 6 0 10 5 10 10 0 6 -4 10 -10 10 -5 0
-10 -4 -10 -10z"/>
<path d="M240 380 c0 -5 5 -10 10 -10 6 0 10 5 10 10 0 6 -4 10 -10 10 -5 0
-10 -4 -10 -10z"/>
<path d="M490 371 c-14 -26 -13 -64 2 -79 7 -7 24 -12 40 -12 29 0 48 23 48
59 0 46 -69 70 -90 32z m55 -37 c0 -19 -6 -30 -16 -32 -20 -4 -30 28 -17 52
14 25 33 14 33 -20z"/>
<path d="M240 340 c0 -5 5 -10 10 -10 6 0 10 5 10 10 0 6 -4 10 -10 10 -5 0
-10 -4 -10 -10z"/>
<path d="M240 300 c0 -5 5 -10 10 -10 6 0 10 5 10 10 0 6 -4 10 -10 10 -5 0
-10 -4 -10 -10z"/>
<path d="M240 260 c0 -5 5 -10 10 -10 6 0 10 5 10 10 0 6 -4 10 -10 10 -5 0
-10 -4 -10 -10z"/>
<path d="M240 220 c0 -5 5 -10 10 -10 6 0 10 5 10 10 0 6 -4 10 -10 10 -5 0
-10 -4 -10 -10z"/>
</g>
</svg>
